<?xml version="1.0" standalone="no"?><svg xmlns="http://www.w3.org/2000/svg" viewBox="0 0 1440 320"><path fill="#273036" fill-opacity="0.25" d="M0,128L6.9,138.7C13.7,149,27,171,41,160C54.9,149,69,107,82,96C96,85,110,107,123,144C137.1,181,151,235,165,245.3C178.3,256,192,224,206,229.3C219.4,235,233,277,247,298.7C260.6,320,274,320,288,288C301.7,256,315,192,329,149.3C342.9,107,357,85,370,96C384,107,398,149,411,176C425.1,203,439,213,453,213.3C466.3,213,480,203,494,181.3C507.4,160,521,128,535,112C548.6,96,562,96,576,122.7C589.7,149,603,203,617,229.3C630.9,256,645,256,658,240C672,224,686,192,699,170.7C713.1,149,727,139,741,117.3C754.3,96,768,64,782,58.7C795.4,53,809,75,823,85.3C836.6,96,850,96,864,90.7C877.7,85,891,75,905,64C918.9,53,933,43,946,58.7C960,75,974,117,987,160C1001.1,203,1015,245,1029,261.3C1042.3,277,1056,267,1070,229.3C1083.4,192,1097,128,1111,112C1124.6,96,1138,128,1152,170.7C1165.7,213,1179,267,1193,282.7C1206.9,299,1221,277,1234,229.3C1248,181,1262,107,1275,117.3C1289.1,128,1303,224,1317,266.7C1330.3,309,1344,299,1358,293.3C1371.4,288,1385,288,1399,277.3C1412.6,267,1426,245,1433,234.7L1440,224L1440,320L1433.1,320C1426.3,320,1413,320,1399,320C1385.1,320,1371,320,1358,320C1344,320,1330,320,1317,320C1302.9,320,1289,320,1275,320C1261.7,320,1248,320,1234,320C1220.6,320,1207,320,1193,320C1179.4,320,1166,320,1152,320C1138.3,320,1125,320,1111,320C1097.1,320,1083,320,1070,320C1056,320,1042,320,1029,320C1014.9,320,1001,320,987,320C973.7,320,960,320,946,320C932.6,320,919,320,905,320C891.4,320,878,320,864,320C850.3,320,837,320,823,320C809.1,320,795,320,782,320C768,320,754,320,741,320C726.9,320,713,320,699,320C685.7,320,672,320,658,320C644.6,320,631,320,617,320C603.4,320,590,320,576,320C562.3,320,549,320,535,320C521.1,320,507,320,494,320C480,320,466,320,453,320C438.9,320,425,320,411,320C397.7,320,384,320,370,320C356.6,320,343,320,329,320C315.4,320,302,320,288,320C274.3,320,261,320,247,320C233.1,320,219,320,206,320C192,320,178,320,165,320C150.9,320,137,320,123,320C109.7,320,96,320,82,320C68.6,320,55,320,41,320C27.4,320,14,320,7,320L0,320Z"></path></svg>